<mxfile host="app.diagrams.net" modified="2024-04-15T20:54:11.896Z" agent="Mozilla/5.0 (Windows NT 10.0; Win64; x64) AppleWebKit/537.36 (KHTML, like Gecko) Chrome/123.0.0.0 Safari/537.36" etag="cPCK3_VLHBkj2sFKiEha" version="24.2.5" type="google">
  <diagram id="prtHgNgQTEPvFCAcTncT" name="Page-1">
    <mxGraphModel grid="1" page="1" gridSize="10" guides="1" tooltips="1" connect="1" arrows="1" fold="1" pageScale="1" pageWidth="827" pageHeight="1169" math="0" shadow="0">
      <root>
        <mxCell id="0" />
        <mxCell id="1" parent="0" />
        <mxCell id="_k0v6m080lgLNMvvuUCW-1" value="Create Transaction" style="rounded=1;whiteSpace=wrap;html=1;" vertex="1" parent="1">
          <mxGeometry x="10" y="335" width="90" height="50" as="geometry" />
        </mxCell>
        <mxCell id="_k0v6m080lgLNMvvuUCW-2" value="" style="endArrow=classic;html=1;rounded=0;" edge="1" parent="1">
          <mxGeometry width="50" height="50" relative="1" as="geometry">
            <mxPoint x="170" y="359.5" as="sourcePoint" />
            <mxPoint x="170" y="359.5" as="targetPoint" />
            <Array as="points">
              <mxPoint x="100" y="359.5" />
            </Array>
          </mxGeometry>
        </mxCell>
        <mxCell id="_k0v6m080lgLNMvvuUCW-3" value="Ask if Cash or Card" style="rounded=1;whiteSpace=wrap;html=1;" vertex="1" parent="1">
          <mxGeometry x="170" y="330" width="120" height="60" as="geometry" />
        </mxCell>
        <mxCell id="_k0v6m080lgLNMvvuUCW-4" value="" style="endArrow=none;html=1;rounded=0;" edge="1" parent="1">
          <mxGeometry width="50" height="50" relative="1" as="geometry">
            <mxPoint x="229.5" y="330" as="sourcePoint" />
            <mxPoint x="229.5" y="240" as="targetPoint" />
          </mxGeometry>
        </mxCell>
        <mxCell id="_k0v6m080lgLNMvvuUCW-5" value="" style="endArrow=none;html=1;rounded=0;" edge="1" parent="1">
          <mxGeometry width="50" height="50" relative="1" as="geometry">
            <mxPoint x="229.5" y="480" as="sourcePoint" />
            <mxPoint x="229.5" y="390" as="targetPoint" />
          </mxGeometry>
        </mxCell>
        <mxCell id="_k0v6m080lgLNMvvuUCW-14" value="" style="edgeStyle=orthogonalEdgeStyle;rounded=0;orthogonalLoop=1;jettySize=auto;html=1;" edge="1" parent="1" source="_k0v6m080lgLNMvvuUCW-8" target="_k0v6m080lgLNMvvuUCW-13">
          <mxGeometry relative="1" as="geometry" />
        </mxCell>
        <mxCell id="_k0v6m080lgLNMvvuUCW-8" value="If Cash" style="rounded=1;whiteSpace=wrap;html=1;" vertex="1" parent="1">
          <mxGeometry x="195" y="200" width="70" height="40" as="geometry" />
        </mxCell>
        <mxCell id="_k0v6m080lgLNMvvuUCW-16" value="" style="edgeStyle=orthogonalEdgeStyle;rounded=0;orthogonalLoop=1;jettySize=auto;html=1;" edge="1" parent="1" source="_k0v6m080lgLNMvvuUCW-9" target="_k0v6m080lgLNMvvuUCW-15">
          <mxGeometry relative="1" as="geometry" />
        </mxCell>
        <mxCell id="_k0v6m080lgLNMvvuUCW-9" value="If Card" style="rounded=1;whiteSpace=wrap;html=1;" vertex="1" parent="1">
          <mxGeometry x="195" y="480" width="70" height="40" as="geometry" />
        </mxCell>
        <mxCell id="_k0v6m080lgLNMvvuUCW-35" value="" style="edgeStyle=orthogonalEdgeStyle;rounded=0;orthogonalLoop=1;jettySize=auto;html=1;" edge="1" parent="1" source="_k0v6m080lgLNMvvuUCW-13" target="_k0v6m080lgLNMvvuUCW-34">
          <mxGeometry relative="1" as="geometry" />
        </mxCell>
        <mxCell id="_k0v6m080lgLNMvvuUCW-13" value="Ask user to pay in person" style="whiteSpace=wrap;html=1;rounded=1;" vertex="1" parent="1">
          <mxGeometry x="320" y="190" width="120" height="60" as="geometry" />
        </mxCell>
        <mxCell id="_k0v6m080lgLNMvvuUCW-18" value="" style="edgeStyle=orthogonalEdgeStyle;rounded=0;orthogonalLoop=1;jettySize=auto;html=1;" edge="1" parent="1" source="_k0v6m080lgLNMvvuUCW-15" target="_k0v6m080lgLNMvvuUCW-17">
          <mxGeometry relative="1" as="geometry" />
        </mxCell>
        <mxCell id="_k0v6m080lgLNMvvuUCW-20" value="" style="edgeStyle=orthogonalEdgeStyle;rounded=0;orthogonalLoop=1;jettySize=auto;html=1;" edge="1" parent="1" source="_k0v6m080lgLNMvvuUCW-15" target="_k0v6m080lgLNMvvuUCW-19">
          <mxGeometry relative="1" as="geometry" />
        </mxCell>
        <mxCell id="_k0v6m080lgLNMvvuUCW-15" value="Ask user if they&#39;d like to use a mobile wallet or physical card" style="whiteSpace=wrap;html=1;rounded=1;" vertex="1" parent="1">
          <mxGeometry x="320" y="470" width="120" height="60" as="geometry" />
        </mxCell>
        <mxCell id="_k0v6m080lgLNMvvuUCW-24" value="" style="edgeStyle=orthogonalEdgeStyle;rounded=0;orthogonalLoop=1;jettySize=auto;html=1;" edge="1" parent="1" source="_k0v6m080lgLNMvvuUCW-17" target="_k0v6m080lgLNMvvuUCW-23">
          <mxGeometry relative="1" as="geometry" />
        </mxCell>
        <mxCell id="_k0v6m080lgLNMvvuUCW-17" value="If Mobile wallet" style="whiteSpace=wrap;html=1;rounded=1;" vertex="1" parent="1">
          <mxGeometry x="332.5" y="400" width="95" height="40" as="geometry" />
        </mxCell>
        <mxCell id="_k0v6m080lgLNMvvuUCW-26" value="" style="edgeStyle=orthogonalEdgeStyle;rounded=0;orthogonalLoop=1;jettySize=auto;html=1;" edge="1" parent="1" source="_k0v6m080lgLNMvvuUCW-19" target="_k0v6m080lgLNMvvuUCW-25">
          <mxGeometry relative="1" as="geometry" />
        </mxCell>
        <mxCell id="_k0v6m080lgLNMvvuUCW-19" value="if physical card" style="whiteSpace=wrap;html=1;rounded=1;" vertex="1" parent="1">
          <mxGeometry x="335" y="565" width="90" height="40" as="geometry" />
        </mxCell>
        <mxCell id="_k0v6m080lgLNMvvuUCW-31" value="" style="edgeStyle=orthogonalEdgeStyle;rounded=0;orthogonalLoop=1;jettySize=auto;html=1;" edge="1" parent="1" source="_k0v6m080lgLNMvvuUCW-23" target="_k0v6m080lgLNMvvuUCW-30">
          <mxGeometry relative="1" as="geometry" />
        </mxCell>
        <mxCell id="_k0v6m080lgLNMvvuUCW-23" value="Prompt user to pay using apple/android pay" style="whiteSpace=wrap;html=1;rounded=1;" vertex="1" parent="1">
          <mxGeometry x="495" y="390" width="120" height="60" as="geometry" />
        </mxCell>
        <mxCell id="_k0v6m080lgLNMvvuUCW-33" value="" style="edgeStyle=orthogonalEdgeStyle;rounded=0;orthogonalLoop=1;jettySize=auto;html=1;" edge="1" parent="1" source="_k0v6m080lgLNMvvuUCW-25" target="_k0v6m080lgLNMvvuUCW-32">
          <mxGeometry relative="1" as="geometry" />
        </mxCell>
        <mxCell id="_k0v6m080lgLNMvvuUCW-25" value="Ask user to insert details" style="whiteSpace=wrap;html=1;rounded=1;" vertex="1" parent="1">
          <mxGeometry x="490" y="605" width="120" height="60" as="geometry" />
        </mxCell>
        <mxCell id="_k0v6m080lgLNMvvuUCW-30" value="" style="whiteSpace=wrap;html=1;rounded=1;" vertex="1" parent="1">
          <mxGeometry x="590" y="505" width="120" height="60" as="geometry" />
        </mxCell>
        <mxCell id="_k0v6m080lgLNMvvuUCW-37" value="" style="edgeStyle=orthogonalEdgeStyle;rounded=0;orthogonalLoop=1;jettySize=auto;html=1;" edge="1" parent="1" source="_k0v6m080lgLNMvvuUCW-32" target="_k0v6m080lgLNMvvuUCW-36">
          <mxGeometry relative="1" as="geometry" />
        </mxCell>
        <mxCell id="_k0v6m080lgLNMvvuUCW-32" value="Complete payment" style="whiteSpace=wrap;html=1;rounded=1;" vertex="1" parent="1">
          <mxGeometry x="590" y="505" width="120" height="60" as="geometry" />
        </mxCell>
        <mxCell id="_k0v6m080lgLNMvvuUCW-34" value="" style="whiteSpace=wrap;html=1;rounded=1;" vertex="1" parent="1">
          <mxGeometry x="740" y="380" width="120" height="60" as="geometry" />
        </mxCell>
        <mxCell id="_k0v6m080lgLNMvvuUCW-36" value="Give user their order Number" style="whiteSpace=wrap;html=1;rounded=1;" vertex="1" parent="1">
          <mxGeometry x="740" y="380" width="120" height="60" as="geometry" />
        </mxCell>
      </root>
    </mxGraphModel>
  </diagram>
</mxfile>
